:FULLY-SPECIFIED
:FORCE-ALL-JOINTS-BE-3DOF
:DEGREES
849
root 3.85059 16.354 28.1651 -9.01542 5.84461 -2.0972
lfemur -22.5119 1.66184 -14.8821
ltibia 35.4726 -0 0
lfoot -3.25577 -16.9342 0.183438
ltoes 6.67726 -0 0
rfemur -26.8385 -4.37597 3.50613
rtibia 70.9642 -0 0
rfoot 21.7472 10.5481 -0.0433036
rtoes -15.6482 0 0
lowerback 3.55545 2.94347 -0.852535
upperback 0.91058 3.89833 0.479664
thorax -1.03762 1.95752 1.10247
lowerneck -6.28946 -3.54905 2.85232
upperneck 9.32348 -5.23745 1.73854
head 4.13811 -2.39807 -0.203149
lclavicle 2.99171e-014 -9.14409e-015 0
lhumerus -49.4298 -9.44606 83.858
lradius 54.0132 -0 0
lwrist 19.2506 0 0
lhand -1.33348 4.05943 -0.0794216
lfingers 7.12502 -0 0
lthumb 24.3181 32.5725 -0.0470395
rclavicle 2.99171e-014 -9.14409e-015 0
rhumerus -39.9539 15.5868 -68.065
rradius 52.5227 -0 0
rwrist 6.55307 0 0
rhand -25.5688 -25.8588 -0.475414
rfingers 7.12502 -0 0
rthumb 0.963323 -55.7512 -0.445388
850
root 3.87018 16.3746 28.2579 -9.64259 6.87411 -1.94353
lfemur -21.566 1.86174 -15.3524
ltibia 35.3529 -0 0
lfoot -3.26816 -18.2033 0.199836
ltoes 8.39058 -0 0
rfemur -29.6257 -3.75273 3.43368
rtibia 69.7416 -0 0
rfoot 20.6012 9.35693 0.0492835
rtoes -14.3882 0 0
lowerback 4.35843 2.55879 -1.13506
upperback 1.19096 3.36622 0.374399
thorax -1.18642 1.69263 1.16278
lowerneck -6.28782 -3.54059 2.81682
upperneck 9.28724 -5.23188 1.84342
head 4.12971 -2.39229 -0.161809
lclavicle 2.99171e-014 -9.14409e-015 0
lhumerus -48.3792 -10.3304 83.562
lradius 54.079 -0 0
lwrist 19.6032 0 0
lhand -0.78433 3.99598 -0.0910015
lfingers 7.12502 -0 0
lthumb 24.8461 32.4507 -0.0512359
rclavicle 2.99171e-014 -9.14409e-015 0
rhumerus -40.8215 14.4277 -66.7956
rradius 52.1968 -0 0
rwrist 6.37353 0 0
rhand -24.1646 -25.9162 -0.540233
rfingers 7.12502 -0 0
rthumb 2.31901 -55.7916 -0.504363
851
root 3.88771 16.396 28.3471 -10.2622 7.92026 -1.803
lfemur -20.618 2.07852 -15.8052
ltibia 35.2083 -0 0
lfoot -3.29374 -19.4381 0.212863
ltoes 10.146 -0 0
rfemur -32.4489 -3.12076 3.36468
rtibia 68.4446 -0 0
rfoot 19.3707 8.12352 0.12958
rtoes -13.1154 0 0
lowerback 5.17956 2.17144 -1.42172
upperback 1.47809 2.82565 0.262336
thorax -1.33672 1.42335 1.21951
lowerneck -6.28603 -3.52878 2.78056
upperneck 9.23432 -5.22155 1.95214
head 4.11586 -2.38437 -0.118804
lclavicle 2.99171e-014 -9.14409e-015 0
lhumerus -47.2966 -11.2415 83.258
lradius 54.1478 -0 0
lwrist 19.9612 0 0
lhand -0.215087 3.93856 -0.100894
lfingers 7.12502 -0 0
lthumb 25.3931 32.33 -0.0543221
rclavicle 2.99171e-014 -9.14409e-015 0
rhumerus -41.6988 13.2702 -65.5348
rradius 51.8991 -0 0
rwrist 6.15752 0 0
rhand -22.7242 -25.9914 -0.598719
rfingers 7.12502 -0 0
rthumb 3.70969 -55.8476 -0.557613
852
root 3.90334 16.418 28.4333 -10.8692 8.974 -1.67628
lfemur -19.6772 2.31381 -16.2393
ltibia 35.0466 -0 0
lfoot -3.33308 -20.6246 0.221892
ltoes 11.9126 -0 0
rfemur -35.2849 -2.49974 3.30068
rtibia 67.1124 -0 0
rfoot 18.0844 6.87525 0.191265
rtoes -11.8445 0 0
lowerback 6.01011 1.78476 -1.71137
upperback 1.76898 2.28111 0.144551
thorax -1.48705 1.1519 1.27318
lowerneck -6.28466 -3.51427 2.74372
upperneck 9.16676 -5.20729 2.0638
head 4.09729 -2.3747 -0.0745036
lclavicle 2.99171e-014 -9.14409e-015 0
lhumerus -46.1926 -12.1731 82.9492
lradius 54.2203 -0 0
lwrist 20.3195 0 0
lhand 0.373282 3.88937 -0.108608
lfingers 7.12502 -0 0
lthumb 25.958 32.2117 -0.0561543
rclavicle 2.99171e-014 -9.14409e-015 0
rhumerus -42.5787 12.1148 -64.2863
rradius 51.6349 -0 0
rwrist 5.90388 0 0
rhand -21.2781 -26.0903 -0.647971
rfingers 7.12502 -0 0
rthumb 5.10566 -55.9252 -0.602539
853
root 3.91724 16.44 28.5167 -11.4586 10.0263 -1.56367
lfemur -18.7532 2.56906 -16.6531
ltibia 34.8759 -0 0
lfoot -3.38678 -21.7486 0.226319
ltoes 13.6592 -0 0
rfemur -38.1103 -1.90904 3.24573
rtibia 65.7841 -0 0
rfoot 16.7712 5.63978 0.230408
rtoes -10.5901 0 0
lowerback 6.84133 1.40196 -2.00265
upperback 2.06059 1.73707 0.0222168
thorax -1.63595 0.880493 1.32427
lowerneck -6.28422 -3.49769 2.70647
upperneck 9.08664 -5.18995 2.17754
head 4.07476 -2.36371 -0.0292805
lclavicle 2.99171e-014 -9.14409e-015 0
lhumerus -45.078 -13.1191 82.6391
lradius 54.2977 -0 0
lwrist 20.6731 0 0
lhand 0.979806 3.85063 -0.113706
lfingers 7.12502 -0 0
lthumb 26.5399 32.0973 -0.0566221
rclavicle 2.99171e-014 -9.14409e-015 0
rhumerus -43.4536 10.9614 -63.0545
rradius 51.4094 -0 0
rwrist 5.61145 0 0
rhand -19.8573 -26.2186 -0.684877
rfingers 7.12502 -0 0
rthumb 6.4772 -56.0306 -0.636305
854
root 3.9296 16.4618 28.5979 -12.0252 11.068 -1.4651
lfemur -17.855 2.84556 -17.0454
ltibia 34.7041 -0 0
lfoot -3.45541 -22.7961 0.225586
ltoes 15.3548 -0 0
rfemur -40.9016 -1.36758 3.20625
rtibia 64.499 -0 0
rfoot 15.4602 4.44495 0.245581
rtoes -9.36696 0 0
lowerback 7.66442 1.02613 -2.29399
upperback 2.34985 1.19797 -0.103393
thorax -1.78195 0.611353 1.37324
lowerneck -6.28527 -3.47968 2.66899
upperneck 8.996 -5.17036 2.29248
head 4.049 -2.3518 0.0164946
lclavicle 2.99171e-014 -9.14409e-015 0
lhumerus -43.964 -14.0739 82.3321
lradius 54.3808 -0 0
lwrist 21.0169 0 0
lhand 1.60351 3.82458 -0.115809
lfingers 7.12502 -0 0
lthumb 27.1376 31.9882 -0.0556514
rclavicle 2.99171e-014 -9.14409e-015 0
rhumerus -44.316 9.8096 -61.8436
rradius 51.2277 -0 0
rwrist 5.27907 0 0
rhand -18.4924 -26.3817 -0.706202
rfingers 7.12502 -0 0
rthumb 7.7946 -56.1695 -0.655917
855
root 3.94057 16.4831 28.6772 -12.5641 12.09 -1.38015
lfemur -16.9922 3.14447 -17.4149
ltibia 34.5393 -0 0
lfoot -3.53955 -23.753 0.219199
ltoes 16.9683 -0 0
rfemur -43.6353 -0.893692 3.19093
rtibia 63.2961 -0 0
rfoot 14.1807 3.31869 0.237829
rtoes -8.18972 0 0
lowerback 8.47052 0.660225 -2.58364
upperback 2.63364 0.668226 -0.230902
thorax -1.92359 0.3467 1.42052
lowerneck -6.28835 -3.46088 2.63143
upperneck 8.89689 -5.14939 2.40777
head 4.02075 -2.33938 0.0624511
lclavicle 2.99171e-014 -9.14409e-015 0
lhumerus -42.8619 -15.0322 82.033
lradius 54.4705 -0 0
lwrist 21.3459 0 0
lhand 2.24344 3.81344 -0.114598
lfingers 7.12502 -0 0
lthumb 27.7502 31.8858 -0.0532049
rclavicle 2.99171e-014 -9.14409e-015 0
rhumerus -45.1582 8.65856 -60.6585
rradius 51.0949 -0 0
rwrist 4.90558 0 0
rhand -17.2144 -26.5852 -0.708694
rfingers 7.12502 -0 0
rthumb 9.02811 -56.3478 -0.658321
856
root 3.95032 16.5035 28.7551 -13.07 13.0832 -1.30808
lfemur -16.1739 3.46682 -17.7604
ltibia 34.3893 -0 0
lfoot -3.6398 -24.6051 0.206753
ltoes 18.4687 -0 0
rfemur -46.2879 -0.505047 3.2105
rtibia 62.2146 -0 0
rfoot 12.9616 2.28883 0.210487
rtoes -7.07307 0 0
lowerback 9.25073 0.307059 -2.86965
upperback 2.90881 0.152228 -0.358837
thorax -2.05939 0.0887535 1.46653
lowerneck -6.294 -3.44193 2.59398
upperneck 8.79136 -5.1279 2.52252
head 3.99075 -2.32687 0.108219
lclavicle 2.99171e-014 -9.14409e-015 0
lhumerus -41.7837 -15.9888 81.7475
lradius 54.5679 -0 0
lwrist 21.6552 0 0
lhand 2.8986 3.81948 -0.109816
lfingers 7.12502 -0 0
lthumb 28.3766 31.7915 -0.0492843
rclavicle 2.99171e-014 -9.14409e-015 0
rhumerus -45.9725 7.5069 -59.5041
rradius 51.0163 -0 0
rwrist 4.48983 0 0
rhand -16.054 -26.8342 -0.689226
rfingers 7.12502 -0 0
rthumb 10.1479 -56.571 -0.640542
857
root 3.95904 16.5226 28.8319 -13.5376 14.0386 -1.24784
lfemur -15.4094 3.81354 -18.0809
ltibia 34.2622 -0 0
lfoot -3.75677 -25.3383 0.187959
ltoes 19.825 -0 0
rfemur -48.8355 -0.218663 3.27739
rtibia 61.2938 -0 0
rfoot 11.8318 1.38304 0.168859
rtoes -6.03167 0 0
lowerback 9.99609 -0.0306851 -3.14987
upperback 3.17215 -0.345664 -0.48563
thorax -2.18789 -0.160267 1.51164
lowerneck -6.30274 -3.42348 2.55681
upperneck 8.68144 -5.10676 2.63589
head 3.95975 -2.31468 0.153429
lclavicle 2.99171e-014 -9.14409e-015 0
lhumerus -40.7416 -16.939 81.4819
lradius 54.6737 -0 0
lwrist 21.9395 0 0
lhand 3.56805 3.84496 -0.101271
lfingers 7.12502 -0 0
lthumb 29.0158 31.7067 -0.043931
rclavicle 2.99171e-014 -9.14409e-015 0
rhumerus -46.7507 6.35289 -58.3857
rradius 50.9971 -0 0
rwrist 4.03065 0 0
rhand -15.0423 -27.1341 -0.644963
rfingers 7.12502 -0 0
rthumb 11.1241 -56.8449 -0.599841
858
root 3.96688 16.5403 28.908 -13.9614 14.9471 -1.19809
lfemur -14.7081 4.18552 -18.3754
ltibia 34.166 -0 0
lfoot -3.89112 -25.9386 0.162665
ltoes 21.006 -0 0
rfemur -51.2547 -0.0509598 3.40537
rtibia 60.5727 -0 0
rfoot 10.82 0.628771 0.119754
rtoes -5.0802 0 0
lowerback 10.6976 -0.350453 -3.42203
upperback 3.4204 -0.821118 -0.609624
thorax -2.30763 -0.398141 1.55623
lowerneck -6.31513 -3.40615 2.52007
upperneck 8.56918 -5.08687 2.74702
head 3.92848 -2.30323 0.197714
lclavicle 2.99171e-014 -9.14409e-015 0
lhumerus -39.7484 -17.8783 81.2431
lradius 54.7891 -0 0
lwrist 22.1939 0 0
lhand 4.25083 3.89216 -0.0888348
lfingers 7.12502 -0 0
lthumb 29.6667 31.6329 -0.0372272
rclavicle 2.99171e-014 -9.14409e-015 0
rhumerus -47.4849 5.1944 -57.309
rradius 51.0423 -0 0
rwrist 3.5269 0 0
rhand -14.2104 -27.4905 -0.573552
rfingers 7.12502 -0 0
rthumb 11.9268 -57.1753 -0.533908
859
root 3.97402 16.556 28.9839 -14.3359 15.7996 -1.1573
lfemur -14.0791 4.58358 -18.6432
ltibia 34.1085 -0 0
lfoot -4.04355 -26.3918 0.130888
ltoes 21.9808 -0 0
rfemur -53.5221 -0.0179045 3.60911
rtibia 60.0906 -0 0
rfoot 9.95462 0.053214 0.070879
rtoes -4.23334 0 0
lowerback 11.3462 -0.649808 -3.68371
upperback 3.65025 -1.26983 -0.729085
thorax -2.41715 -0.622649 1.60065
lowerneck -6.3317 -3.39059 2.48395
upperneck 8.45659 -5.06913 2.85506
head 3.89767 -2.29294 0.240705
lclavicle 2.99171e-014 -9.14409e-015 0
lhumerus -38.8173 -18.8024 81.0388
lradius 54.9148 -0 0
lwrist 22.4134 0 0
lhand 4.94597 3.96334 -0.072448
lfingers 7.12502 -0 0
lthumb 30.3283 31.5714 -0.0292964
rclavicle 2.99171e-014 -9.14409e-015 0
rhumerus -48.1667 4.02896 -56.2797
rradius 51.1572 -0 0
rwrist 2.97741 0 0
rhand -13.5893 -27.909 -0.473355
rfingers 7.12502 -0 0
rthumb 12.5259 -57.5682 -0.441081
860
root 3.98063 16.5695 29.0599 -14.6553 16.5872 -1.12374
lfemur -13.5318 5.00854 -18.8836
ltibia 34.0979 -0 0
lfoot -4.21484 -26.6837 0.0928438
ltoes 22.7183 -0 0
rfemur -55.6149 -0.135247 3.90367
rtibia 59.8865 -0 0
rfoot 9.26396 -0.316641 0.0301145
rtoes -3.50576 0 0
lowerback 11.9327 -0.926418 -3.93238
upperback 3.85835 -1.6875 -0.842213
thorax -2.51496 -0.831571 1.64523
lowerneck -6.35299 -3.37745 2.4486
upperneck 8.34571 -5.05446 2.95917
head 3.86808 -2.28423 0.282035
lclavicle 2.99171e-014 -9.14409e-015 0
lhumerus -37.9621 -19.7072 80.8775
lradius 55.0519 -0 0
lwrist 22.5929 0 0
lhand 5.65253 4.0608 -0.0521181
lfingers 7.12502 -0 0
lthumb 30.9996 31.5237 -0.0203035
rclavicle 2.99171e-014 -9.14409e-015 0
rhumerus -48.7876 2.85381 -55.3042
rradius 51.347 -0 0
rwrist 2.38102 0 0
rhand -13.2104 -28.3956 -0.3437
rfingers 7.12502 -0 0
rthumb 12.8912 -58.0299 -0.320604
861
root 3.98688 16.5804 29.1365 -14.914 17.3008 -1.09559
lfemur -13.0752 5.46122 -19.0965
ltibia 34.142 -0 0
lfoot -4.40582 -26.8003 0.0489772
ltoes 23.1875 -0 0
rfemur -57.511 -0.41883 4.30398
rtibia 59.9997 -0 0
rfoot 8.77636 -0.453913 0.00465081
rtoes -2.91213 0 0
lowerback 12.4481 -1.17803 -4.16545
upperback 4.04132 -2.06988 -0.947159
thorax -2.59962 -1.02269 1.6903
lowerneck -6.37952 -3.36737 2.41422
upperneck 8.23857 -5.04376 3.0585
head 3.84042 -2.27752 0.321339
lclavicle 2.99171e-014 -9.14409e-015 0
lhumerus -37.1969 -20.5888 80.7681
lradius 55.2012 -0 0
lwrist 22.7273 0 0
lhand 6.36957 4.18684 -0.0279208
lfingers 7.12502 -0 0
lthumb 31.6796 31.4913 -0.0104553
rclavicle 2.99171e-014 -9.14409e-015 0
rhumerus -49.3389 1.66596 -54.389
rradius 51.6168 -0 0
rwrist 1.73658 0 0
rhand -13.1052 -28.9568 -0.185182
rfingers 7.12502 -0 0
rthumb 12.9924 -58.5671 -0.172919
